<?xml version="1.0" encoding="UTF-8"?>
<svg id="Layer_2" data-name="Layer 2" xmlns="http://www.w3.org/2000/svg" xmlns:xlink="http://www.w3.org/1999/xlink" viewBox="0 0 415.29 516.63">
  <defs>
    <style>
      .cls-1 {
        fill: #395c54;
      }

      .cls-2 {
        fill: #b0c6a9;
      }

      .cls-3 {
        fill: url(#linear-gradient-2);
      }

      .cls-4 {
        fill: #b79d6d;
      }

      .cls-5 {
        fill: #80a079;
      }

      .cls-6 {
        fill: #c98e5f;
      }

      .cls-7 {
        fill: #fff;
      }

      .cls-8 {
        fill: url(#linear-gradient-4);
      }

      .cls-9 {
        fill: #86725c;
      }

      .cls-10 {
        fill: #d9915f;
      }

      .cls-11 {
        fill: url(#linear-gradient-3);
      }

      .cls-12 {
        fill: url(#linear-gradient-5);
      }

      .cls-13 {
        fill: #d59b65;
      }

      .cls-14 {
        fill: #d5e2b9;
      }

      .cls-15 {
        fill: #df9b62;
      }

      .cls-16 {
        fill: #59534f;
      }

      .cls-17 {
        fill: #649c80;
      }

      .cls-18 {
        fill: #d4a069;
      }

      .cls-19 {
        fill: #bccd30;
      }

      .cls-20 {
        fill: #3e6d5c;
      }

      .cls-21 {
        fill: #e29b61;
      }

      .cls-22 {
        fill: #a3896a;
      }

      .cls-23 {
        fill: #c4dbb5;
      }

      .cls-24 {
        fill: url(#linear-gradient-6);
      }

      .cls-25 {
        fill: #c2a371;
      }

      .cls-26 {
        fill: #bdc495;
      }

      .cls-27 {
        fill: #283d44;
      }

      .cls-28 {
        fill: #dea066;
      }

      .cls-29 {
        fill: #9ca77e;
      }

      .cls-30 {
        fill: #8a8d6b;
      }

      .cls-31 {
        fill: #e4ebc5;
      }

      .cls-32 {
        fill: #8eb936;
      }

      .cls-33 {
        fill: #6c8c71;
      }

      .cls-34 {
        fill: #6c7765;
      }

      .cls-35 {
        fill: #4b4231;
      }

      .cls-36 {
        fill: url(#linear-gradient);
      }

      .cls-37 {
        fill: #c99c67;
      }

      .cls-38 {
        fill: #a3bd94;
      }

      .cls-39 {
        fill: #84bb99;
      }
    </style>
    <linearGradient id="linear-gradient" x1="271.45" y1="40.55" x2="335.76" y2="63.41" gradientUnits="userSpaceOnUse">
      <stop offset="0" stop-color="#c99c67"/>
      <stop offset="1" stop-color="#d99c64"/>
    </linearGradient>
    <linearGradient id="linear-gradient-2" x1="157.07" y1="453.8" x2="255.55" y2="516.47" gradientUnits="userSpaceOnUse">
      <stop offset="0" stop-color="#5e7b38"/>
      <stop offset="1" stop-color="#bccd30"/>
    </linearGradient>
    <linearGradient id="linear-gradient-3" x1="291.21" y1="323.06" x2="328.66" y2="351.79" gradientUnits="userSpaceOnUse">
      <stop offset="0" stop-color="#546b5e"/>
      <stop offset="1" stop-color="#718c71"/>
    </linearGradient>
    <linearGradient id="linear-gradient-4" x1="276.29" y1="361.99" x2="331.53" y2="399.86" gradientUnits="userSpaceOnUse">
      <stop offset="0" stop-color="#65635a"/>
      <stop offset="1" stop-color="#6b7d6b"/>
    </linearGradient>
    <linearGradient id="linear-gradient-5" x1="139.61" y1="356.97" x2="100.26" y2="395.19" gradientUnits="userSpaceOnUse">
      <stop offset="0" stop-color="#405856"/>
      <stop offset="1" stop-color="#6e8169"/>
    </linearGradient>
    <linearGradient id="linear-gradient-6" x1="199.55" y1="268.21" x2="141.8" y2="298.18" gradientUnits="userSpaceOnUse">
      <stop offset="0" stop-color="#4c8272"/>
      <stop offset="1" stop-color="#6ca283"/>
    </linearGradient>
  </defs>
  <g id="Layer_1-2" data-name="Layer 1">
    <g id="Generative_Object" data-name="Generative Object">
      <path class="cls-13" d="M83.29,63.09c.31.02,5.65,1.94,5.74,2.23.19.61-7.73,6.03-3.83,10.84-2.43,2.19-4.26-1.2-7.97-.96-1.88.12-5.35,4.47-5.42,0,8.27-.21,6.02-12.41,11.48-12.12Z"/>
      <path class="cls-13" d="M166.85,57.35c8.32-1.11,6.08-8.23,10.84-12.12,2.12,1.7,4.08,1.16,6.38,2.23-3.29,4.53-5.86,5.15-3.19,11.48l-1.59.96c-3.58-5.33-11.7,1.81-12.44-2.55Z"/>
      <path class="cls-37" d="M83.29,63.09c-5.46-.29-3.21,11.91-11.48,12.12-.08-4.79,1.79-6.48-3.19-10.52,5.78-1.67,7.82-1.42,10.52-7.34l4.15,5.74Z"/>
      <path class="cls-13" d="M245.31,3.13l8.29,3.51c-4.69,2.8-6.04,4.71-4.46,10.21-2.87,1.39-4.29-2.02-7.97-1.59-.32.04-2.79,2.83-4.46,1.91-.61-.46-.26-1.84-.32-2.55,7.25-.46,7.04-5.58,7.65-11.16.06-.53,1.27-.25,1.28-.32Z"/>
      <path class="cls-37" d="M177.69,45.23c-4.76,3.89-2.53,11.01-10.84,12.12-.46-2.68,2.66-5.95-2.55-10.52,6.36-.27,7.32-1.68,10.52-6.7.93,1.73,1.23,3.79,2.87,5.1Z"/>
      <path class="cls-37" d="M370.96,154.94c-7.18,1.14-3.89,10.69-12.12,9.57.14-4.41.79-4.67-2.23-8.93,5.33,1.33,8.37-5.59,8.93-5.74.98-.25,3.18,3.76,5.42,5.1Z"/>
      <path class="cls-13" d="M385.63,84.14c2.3,1.68,3.66,1.8,6.38,2.23-2.44,3.95-4.78,5.75-2.55,10.84-2.18,1.98-3.86-1.83-7.34-1.59-.67.04-3.5,2.66-4.78,1.91-.24-3.15,3.67-3.32,5.1-5.42,1.39-2.04,1.15-6.67,3.19-7.97Z"/>
      <path class="cls-13" d="M358.84,164.51c8.23,1.12,4.94-8.43,12.12-9.57,1.65.99,3.51.39,4.46,1.59-5.63,3.23-3.67,6.72-4.78,11.8-4.26-4.01-6.94-2.87-11.48-.64-1.74-1.22-.37-1.75-.32-3.19Z"/>
      <path class="cls-13" d="M40.55,146.65c-2.2-2.7,2.47-2.94,3.83-6.7.89-2.48.08-5.2,1.28-7.34,2.39,2.52,6.21,3.17,6.38,3.51.45.89-5.41,8.04-1.91,11.48-.63,1.21-5.08-2.14-6.06-2.23-1.63-.15-2.43,1.08-3.51,1.28Z"/>
      <path class="cls-37" d="M45.66,132.62c-1.2,2.14-.38,4.85-1.28,7.34-1.35,3.76-6.03,4-3.83,6.7-.91.16-2.7,1.14-3.19.32,3.26-5.01-2.64-10.25-2.55-10.84.19-1.32,4.49-.77,6.06-1.59s2.44-4.38,3.19-4.46c1.44-.16,1.35,2.3,1.59,2.55Z"/>
      <path class="cls-37" d="M245.31,3.13c0,.07-1.22-.21-1.28.32-.61,5.58-.4,10.7-7.65,11.16-.27-3.56,1.71-5.46-2.55-9.25,5.33,2.4,11.98-11.29,11.48-2.23Z"/>
      <path class="cls-37" d="M385.63,84.14c-2.04,1.3-1.8,5.93-3.19,7.97-1.43,2.1-5.34,2.27-5.1,5.42-1.44-.84,1.36-9.42-3.19-11.16,4.09-1.63,7.01-.15,8.61-5.42,2.48-.09,2.13,2.65,2.87,3.19Z"/>
      <path class="cls-13" d="M117.73,11.43c5.42,1.64,4.11-5.23,6.38-7.65,1.22.76,5.74,2.18,5.74,2.87,0,.47-6.03,2.83-2.55,7.65-5.19-3.31-8.79,1.95-9.57-2.87Z"/>
      <path class="cls-37" d="M124.11,3.77c-2.27,2.43-.96,9.3-6.38,7.65-.26-1.59.66-2.12.64-2.23-.25-1.1-2.59-2.99-2.55-3.19.25-1.2,3.61-1.23,4.15-1.59.97-.65,2.2-3.19,2.55-3.19.65,0,1.28,2.36,1.59,2.55Z"/>
      <path class="cls-13" d="M151.86,103.28c3.06-.18,4.5,5.15,1.28,5.74-4.27.78-2.8-5.65-1.28-5.74Z"/>
      <path class="cls-13" d="M30.99,212.35c.14.11,2.46.58,2.55,1.59.02.21-2.04,3.43-2.23,3.51-.39.16-.2-1.27-.64-1.28-2.2-.01-2.51,1.86-2.87-1.91l3.19-1.91Z"/>
      <path class="cls-13" d="M394.88,220.64c2.38-.39,2.86,4.19.64,4.46-3.07.37-1.82-4.27-.64-4.46Z"/>
      <path class="cls-37" d="M30.99,212.35l-3.19,1.91c0-.09-1.27-.3-.64-1.59,2.11-4.33,3.18-.82,3.83-.32Z"/>
      <g>
        <path class="cls-36" d="M311.64,7.6c-3.81,1.12-3.88,2.72-5.42,3.83-18.32,13.15-30.46,38.86-11.8,57.73,2.38,2.41,2.75.9,6.38,2.87,4.65,2.52,10.98,6.87,16.27,7.65,10.01,1.48,24.18-1,32.53-7.02,1.27,6.12-9.22,16.49-14.67,19.77-34.5,20.81-75.76-9.53-71.12-48.16,2.48-20.65,26.41-41.92,47.84-36.68Z"/>
        <path class="cls-15" d="M300.8,72.02c-3.63-1.97-4-.46-6.38-2.87-18.66-18.86-6.52-44.57,11.8-57.73,1.55-1.11,1.62-2.7,5.42-3.83,1.01.25,2.27.07,3.19.96-26.62,10.68-36.09,42.97-14.03,63.47Z"/>
        <g>
          <path class="cls-3" d="M274.65,494.28v.64c2.43-.37,5.42-2.71,7.65-3.19,9.75-2.11,4.33,2.58,7.34,2.55l5.42-2.55c4.94-.19-4,3.96-.96,7.02,6.27-.62,10.85-1.28,14.99-6.38.31,1.23.95,4.18.64,5.42l1.59.32,17.22-9.57c1.86,1.11-5.52,9.09-3.19,9.57,2.32-.42,15.99-6.2,16.27-4.15-.62,1.35-6.47,5.91-4.15,6.7,6.91-.2,15.26-.82,21.05-5.1,2.7.19-2.93,6.47-3.51,7.34.46.62,2.41.27,3.19.32l.64,5.1c-67.11-2.73-137.01-5-204.11-3.83-16.64.29-33.45,1.54-50.07,2.55-1.75-2.21,1.82-4.61,1.59-6.06-.2-1.28-9.97-7.32-6.38-9.89,1.85,1.86,3.21,2.91,5.74,3.83,3.18,1.16,7.15,1.11,10.52,1.28.2,0,1.11-1.32,1.28-1.28.55.14,5.06,8.17,2.23-4.15l3.51,3.51,2.23-5.74c2.31,3.75,5.69,3.69,7.97,0-1.05,3.76,2.77,4.98,2.87,1.59l-3.19-5.1c1.87.49,3.91,1.05,5.74,1.59,3.31.99,6.79,2.24,9.89,3.83,1.38-.07-.88-5.2.64-6.38.49-.37,10.26,5.92,10.84,5.74,1.39-.42.63-2.63,1.28-3.19,1.35-1.17,11.26,7.13,14.35,7.02h.64c-2.33-4.16-3.11-8.03-2.23-12.76,4.47,4.36,9.33,7.55,14.35,10.84,1.81,1.18,1.83,4.73,4.78,3.83,1.32-.26,3.83-5.48,4.78-6.38,7.2-6.79,6.5-3.09,13.71,1.91,1.27-.64-4.2-6.89.32-6.38,3.19,7.28,3.47,1.5,6.06,1.28,4.6-.4,5.49,7.53,10.52-2.55.43.75,2.59,3.9,3.51,3.83l10.84-12.76c2.95,2.37-8.06,14.36-6.38,15.31l13.39-5.1-3.19,8.29,15.31-6.38c3.64,2.92-1.38,4.42,0,7.02l15.95-7.65c1.55,1.17-2.83,6.92-3.51,8.29Z"/>
          <path class="cls-19" d="M358.84,508.32c3.48.14,8.15-.77,10.84-.64,15.38.77,31.58,2.3,45.61,8.93-94.08-.05-188.18.07-282.25,0-.48-1.37,5.13-1.91,5.42-1.91,10.65-.07,18.51,5.75,16.27-10.21,67.11-1.17,137,1.1,204.11,3.83Z"/>
          <path class="cls-32" d="M99.87,491.09c-3.59,2.56,6.18,8.6,6.38,9.89.22,1.44-3.34,3.85-1.59,6.06,16.62-1.02,33.43-2.26,50.07-2.55,2.25,15.96-5.62,10.14-16.27,10.21-.29,0-5.9.54-5.42,1.91-44.32-.03-88.66.02-132.99,0-.77-2.39,7.59-3.96,9.57-4.46,9.87-2.5,20.28-2.88,30.3-4.46h.64c1.36-.28.03-.59,0-.64-.44-.68-2.96-1.27-1.59-3.19l17.86.64-3.83-7.02,15.31,3.19v-9.57l9.57,5.74c3.64.39.79-2.84,1.59-4.15.75-1.22,12.39,4.75,14.99,4.15-.79-2.17-3.26-13.33-1.28-14.03,3.01,2.04,3.98,5.56,6.7,8.29Z"/>
          <path class="cls-4" d="M369.69,507.04c-.56.42-1.17.41,0,.64-2.69-.13-7.37.78-10.84.64l-.64-5.1c5.44.31,11.41-1.93,16.9-1.91.03,2.77-3.62,4.4-5.42,5.74Z"/>
          <path class="cls-7" d="M133.04,386.49h-.64v-.64h.64c-.04.2.02.43,0,.64Z"/>
        </g>
        <g>
          <path class="cls-11" d="M305.9,306.75c-.1,5.04,3.13,6.77,7.65,5.1,1.44,2.42,2.25.27,3.51.64,3.42.99,6.5,2.97,10.21,3.19.55-2.36-4.79-8.56-2.55-8.93,1.41.3,1.89,2.33,2.23,2.55l.96,7.02c-5.49-.58-9.21-1.73-14.35-1.59,13.64,14.96,35.37,16.4,54.22,19.14-4.41,11.38-17.16,6.16-24.88,7.97-1.35.32-.02.61,0,.64,1.72,2.88,8.92,5.79,6.06,10.84-3.87-.04-8.33.13-12.12-.64-3.93-.8-9.8-5.63-13.08-3.51-.07.04,1.4,1.05.32,1.59-2.02,1.03-4.42-.2-5.42,1.91-2.12-2.1-1.18-6.98-3.51-1.91-3.83-3.29-5.58-8.24-7.65-12.76-1.23,18.47-10.9,3.52-13.39-5.1-1.94,4.52-.76,10.72-3.83,14.67-.14.18-1.45-.15-1.59,0-3.74-4.51-11.92-2.81-16.9-3.83-5.77-1.18-12.57-3.96-17.22-5.74-6.46-2.48-15.39-5.24-19.45-10.84,4.31,3.29,24.38,12.24,29.02,11.48,7.15-1.17,14.55-11.23,17.54-17.22,1.39-2.78,1.65-7.64,5.1-7.02.7,2.64,3.21,3.27,5.42,1.91,2.4-1.47,1.56-18.17,2.55-21.69,3.24-2.64,1.01,17.61,8.29,15.95.74-.17,2.59-2.91,2.87-3.83Z"/>
          <path class="cls-14" d="M300.16,152.39l-6.38,12.44c2.38,4.34-.57,10.83-.64,14.03-.23,9.96,1.74,14.76,0,26.47l-.32-8.29c-.3.42-1.77,2.49-1.91,2.55-5.85,2.56-8.99,2.07-11.8,8.93-5.57-2.84-10.14-4.48-12.12-11.16,7.26-1.75,21.18,6.87,25.51-3.83-3.23-.77-6.72.64-8.93-2.55l1.28-.64c-3.87-4.79-8.51-4.05-6.38-11.8v-1.28c4.84.69,7.93,3.65,13.08,1.91,2.05-1.14-3.96-7.68-4.78-8.61l1.28-.32c.28,1.36.6.02.64,0,2.33-1.46,4.57-6.06,3.19-8.93,4.62-1.71-.78-18.01,4.46-21.05l.64-.64c4.16,2.95,3.3,8.12,3.19,12.76Z"/>
          <path class="cls-23" d="M293.14,205.34c-.59,3.98-1.88,7.99-3.19,11.8,4.92-2.3,1.05,3.38,1.91,5.74.47,1.28,2.2.52,2.55,1.59-4.92-.58-3.3,7.5-6.38,9.57.24-1.51.4-7.94-1.91-8.29.17-.11,2.48-3,2.55-3.19.01-.03,1.35-.32,0-.64-6.59,5.88-14.35-2.1-17.22-1.91.59-5.06-2.86,1.87-4.15,1.91-.11,0-1.8-1.28-1.91-1.28-8.83.11-17.13-.19-25.51-2.55l1.59-1.91c4.73.4,29.3-.83,30.94,0,.89.45-.59,2.17,1.28,2.55.65.13,11.23-3.47,11.8-5.42-.2-1.39-7.47-.85-7.65-3.83.2-.54,1.25-.88,1.28-.96,2.81-6.86,5.95-6.37,11.8-8.93.15-.06,1.62-2.13,1.91-2.55l.32,8.29Z"/>
          <path class="cls-35" d="M319.3,393.5c-.21-.17-.94-.55-1.28-.64l-1.28-.32c.37.28.53.49.64.96.12.5.45,1.36.64,1.91l-8.61,1.91c-.56.96,2.72,2.15,3.51,2.55-4.29.24-6.11-3.86-10.21-4.46-.57-4.45-1.58-9.2-3.19-13.39l3.83-.32.32-11.16c3.67,6.39,3.67,14.89,10.21,19.14,2.8-2.05,0-13.76,1.28-14.03,2.99,6.33,9.15,11.18,4.15,17.86Z"/>
          <path class="cls-31" d="M291.87,161.32c1.38,2.87-.86,7.47-3.19,8.93h-.64l-2.55-7.97c1.53-1.65,6.06-.84,6.38-.96Z"/>
          <path class="cls-16" d="M312.92,399.88c-.79-.4-4.07-1.59-3.51-2.55l8.61-1.91c.28.82,3.11,5.91,2.23,6.38-3.24.69-4.76-.59-7.34-1.91Z"/>
          <path class="cls-5" d="M279.75,297.82c-11-1.69-19.85-2.32-29.98-6.38,11.17,4.52,31.54-1.81,36.04-13.39l-13.39,1.28.64-5.1c-3.57,1.48-8.04,1.74-11.8,1.91-.08-7.24,3.72-1.51,6.06-1.91.34-.06,5.83-4.1,4.78-5.1,8.77-1.01,10.07-4.27,15.31-10.21,2.04-2.32,4.56-4.47,6.38-7.02.03.12,1.89.77,1.91.96,1.06,9.33-2.46,26.73-8.29,34.44-2.47,3.26-6.76,6.11-10.21,8.29l2.55,2.23Z"/>
          <path class="cls-23" d="M219.79,231.49c2.69,3.23,6.46,10.02,11.8,7.02,1.58-.89-.14-1.21.96-2.55l1.59,3.83-8.61.32c5.03,6.85,18.14,12.56,26.47,13.71,13.11,1.81,20.8-2.09,32.53-6.38,1.15-.42,3.83,1.57,4.15-1.59.72-7.21-7.22,2.62-8.93-2.23,3.49-.53,3.9.55,5.74-2.55,1.21,3.23,7.06-6.65,7.65-7.65l-1.91,18.82c.68.77,2.12-.54,2.55-.96.05.2-.05.44,0,.64-1.82,2.55-4.33,4.7-6.38,7.02-3.26-1.86-5.64,2.64-7.97,3.19-3.35.79-14.25-.21-17.86-1.28-1.91-.56-1.56-2.46-1.91-2.55-8.95-2.41-14.62-1.82-23.28-7.02-.88-.53-3.04-1.02-4.15-1.91l-13.71-14.67c.73-1.8-1.01-3.36,1.28-3.19Z"/>
          <path class="cls-30" d="M286.77,314.41c-3.45-.62-3.72,4.24-5.1,7.02-4.48,1.52-7.93,5.13-13.08,4.46l.32-7.97c-.56-1.39-6.45-1.65-6.06.32,7.01,10.56-3.77,9.01-10.52,6.38l11.16.64c3.55-2.24-2.83-7.48-2.87-7.97-.41-4.78,8.85-.19,10.52-.32,1.85-.15,5.55-3.05,7.34-3.83,1.05-.46,6.95-3.98,7.34-3.83,1.24.5.72,4.21.96,5.1Z"/>
          <path class="cls-5" d="M295.06,248.07c-.96.51-1.52,2.22-1.28,3.19-.43.42-1.87,1.73-2.55.96l1.91-18.82c.84-1.41,1.25-2.98,1.91-4.46,1.2,4.09,2.74,8.28,3.83,12.44-3.98-2.48-2.88,3.84-3.83,6.7Z"/>
          <path class="cls-17" d="M294.42,224.47c.69,2.11.29,3.27.64,4.46-.67,1.49-1.07,3.05-1.91,4.46-.6,1-6.44,10.88-7.65,7.65,1.16-1.95,2.2-4.85,2.55-7.02,3.08-2.07,1.45-10.15,6.38-9.57Z"/>
          <g>
            <path class="cls-2" d="M300.16,152.39c-.08,3.38-.21,4.92-1.91,7.97,2.45,1.71,4.05-1.19,7.02-.32,1.51,1.52.77,5.36,2.55,3.83.96,6.69-5.1,10.12-5.1,16.27,1.67,2.37,13.6-6.38,12.76,1.91-.32,3.13-8.02,8.51-10.84,9.89v.64l14.03.96c-1.81,4.52-5.07,7.95-9.57,9.57l.96.96c3.27,2.15,19.57-3.07,19.45,1.59-.06,2.32-5.56,4.41-6.38,5.74-.32.52.32,3.19,0,3.83-.7,1.37-4.98,2.29-5.1,2.55-.24.51,1.79,2.32-.32,3.51-1.32.74-7.03.22-8.29.64-.31.1-1.33,3.37-4.78,3.51,4.68,8.54,37.5,2.29,38.91,5.1,2.17,4.34-8.1,7.69-8.29,8.29-.17.55,1.12,1.77.64,3.19-.95,2.83-12.14,1.29-14.99.96-1.67,1.03,3.82,5.08.64,7.02-.66.4-13.47-1.41-15.31-1.28l-1.59,1.59c3.88,5.11,9.52,7.13,14.99,9.89l32.21,2.87c-.16,7.27-7.86,7.35-13.39,8.93,8.08,9.34-11.18,7.62-16.58,6.06h-.64c1.37,2.36,2.77,4.09,1.59,7.02-1.91-.55-11.35-1.38-11.8-.32,14.44,13.03,35.03,10.17,52.94,12.12-1.33,6.48-9.22,6.19-12.44,7.97-1.65.91.91,3.38-1.28,4.46-1.71.84-6.09-2.43-7.97,0-.13-.25-2.58-.99-2.55-1.59,2.18-2.56,2.75,1.86,5.1-1.28-4.01.78-6.85-7.08-7.34-7.34-.94-.49-5.52.43-7.02,0-3.48-1-9.64-4.43-12.12-7.02-4.56,1.07,1.81,5.41,3.83,7.02,5.25,4.19,13.95,8.88,20.09,11.48.5,1.05,1.84,1.69,1.28,3.51-5.66.88-11.82-1.66-16.58-4.78-.34-.22-.82-2.26-2.23-2.55-2.24.37,3.1,6.57,2.55,8.93-3.7-.22-6.78-2.2-10.21-3.19-1.26-.36-2.07,1.79-3.51-.64-1.25-2.11-7.44-15.5-7.65-5.1-.28.92-2.13,3.66-2.87,3.83-7.28,1.67-5.05-18.58-8.29-15.95-.99,3.52-.15,20.22-2.55,21.69-2.21,1.35-4.72.72-5.42-1.91-.24-.89.28-4.61-.96-5.1-.38-.15-6.28,3.37-7.34,3.83l-3.19-4.15c.24-.96,20.36-7.53,10.21-10.52-1.92-.57-3.97-.37-5.74-.64l-2.55-2.23c3.44-2.18,7.74-5.03,10.21-8.29,5.83-7.71,9.35-25.11,8.29-34.44-.02-.19-1.88-.83-1.91-.96-.05-.2.05-.44,0-.64,2.05-2,.59-1.12,1.28-3.19.95-2.86-.15-9.18,3.83-6.7-1.08-4.16-2.63-8.35-3.83-12.44-.35-1.19.06-2.36-.64-4.46-.35-1.07-2.08-.32-2.55-1.59-.86-2.36,3.01-8.04-1.91-5.74,1.31-3.81,2.6-7.82,3.19-11.8,1.74-11.71-.23-16.51,0-26.47.07-3.2,3.02-9.69.64-14.03l6.38-12.44Z"/>
            <g>
              <path class="cls-17" d="M342.26,309.31c.13.23-.13,1.01,0,1.28-6.14-2.6-14.84-7.29-20.09-11.48-2.02-1.61-8.38-5.95-3.83-7.02,2.48,2.58,8.64,6.02,12.12,7.02,1.5.43,6.08-.49,7.02,0,.49.25,3.32,8.12,7.34,7.34-2.35,3.13-2.92-1.29-5.1,1.28-.02.6,2.42,1.35,2.55,1.59Z"/>
              <path class="cls-7" d="M307.82,163.87c-1.78,1.53-1.05-2.3-2.55-3.83.68.2,2.12-.37,2.55.32.23.36-.13,2.62,0,3.51Z"/>
              <path class="cls-33" d="M313.56,311.86c-4.52,1.66-7.76-.06-7.65-5.1.21-10.4,6.41,3,7.65,5.1Z"/>
              <path class="cls-5" d="M308.77,239.14l7.34,7.97-.96,1.59-8.61-1.59c3.12-1.96,1.3-4.92,2.23-7.97Z"/>
              <path class="cls-23" d="M293.78,251.26c-.24-.97.32-2.68,1.28-3.19-.69,2.07.77,1.19-1.28,3.19Z"/>
            </g>
          </g>
          <path class="cls-22" d="M259.34,380.11c-1.87,1.66-2.27,3.23-2.87,3.83-.82.81-4.51,1.72-4.78,2.23-.51.97.95,2.02.64,2.55-.56.95-2.89,2.42-3.19,3.19-.35.88,1.56,5.97-2.55,8.29l7.02.96c-1.67.39-7.89,2.62-8.93.32-1.19-2.63,5.12-7.12,2.23-7.97-2.59,1.45-18.43,3.77-16.9-.32,7.67-4.51,15.79-8.32,24.24-11.16.61-.21,1.2-.58,1.28-1.28,1.29-.07,2.32-1.03,3.83-.64Z"/>
          <path class="cls-22" d="M274.01,366.71c2.28,0,1.18,1.06.64,2.23-2.06,4.47-5.3,8.68-10.84,7.34-.18-.04-2.59-1.63-3.19-1.91,4.36.03,6.96-5.62,10.21-7.97.48-3.45-6.24,1.9-7.65-.96,3.41-.71,8.37-3.35,9.57-.32.16.4-2.96,5.61,1.28,1.59Z"/>
          <g>
            <path class="cls-8" d="M318.66,352.68c3.21,3.18,26.98,12.67,32.21,14.03,3.46.9,24.22,3.11,24.56,4.78-4.07,7.31-11.89,7.31-19.14,8.93-.49,1.25,5.38,6.33,4.15,8.61-7.68.9-14.71-1.72-22.01-3.51.25,2.28,14.37,16.44,12.44,17.54-6.45-1.74-10.83,1.46-17.22,0-6.76-1.54-9.6-5.75-14.35-9.57,5-6.68-1.15-11.53-4.15-17.86-1.27.27,1.53,11.98-1.28,14.03-6.53-4.25-6.54-12.75-10.21-19.14l-.32,11.16-3.83.32c-1.89-4.91-3.19-3.79-5.1-11.8-1.53-6.41-1.71,8.3-1.91,9.57-.56,3.44-2.27,7.02-2.55,10.52-.73-.1-.54.47-.64.64-1.59,2.67-3.92,5.05-6.7,6.38-1.09.52-15.76,5.37-16.58,5.1-2.07-.67-1.17-5.13-.32-6.38,1.18-1.58-.61-.01-.64,0-3.9,1.42-6.47,3.93-11.48,5.1l-7.02-.96c4.11-2.32,2.21-7.41,2.55-8.29.3-.77,2.63-2.24,3.19-3.19.31-.53-1.15-1.58-.64-2.55.27-.51,3.97-1.42,4.78-2.23.6-.6,1-2.16,2.87-3.83,1.16-1.03,2.23-1.04,2.55-1.28.83-.61.46.69,1.28-1.28.15-.37-.36-1.32.64-1.28,5.55,1.34,8.78-2.87,10.84-7.34.54-1.17,1.65-2.23-.64-2.23,4.28-4.05,4.13-9.45,6.38-12.44,1.35-1.78,5.7-3.92,8.29-6.7.14-.15,1.46.18,1.59,0,3.07-3.95,1.88-10.15,3.83-14.67,2.5,8.62,12.17,23.58,13.39,5.1,2.08,4.51,3.82,9.47,7.65,12.76,2.33-5.06,1.39-.19,3.51,1.91Z"/>
            <path class="cls-7" d="M289.96,390.95h-.64c.1-.16-.09-.74.64-.64-.02.21.02.43,0,.64Z"/>
            <path class="cls-7" d="M265.72,396.05h-.64s1.82-1.58.64,0Z"/>
            <path class="cls-7" d="M255.51,380.75c-.08.7-.66,1.07-1.28,1.28v-1.28c.42,0,.86.02,1.28,0Z"/>
            <path class="cls-26" d="M358.52,369.9l14.99,2.87c-.8.5-2.25,2.66-2.87,2.87-1.13.38-15.03-4.03-12.12-5.74Z"/>
            <path class="cls-22" d="M261.89,378.83l1.28-1.28c-.82,1.96-.44.67-1.28,1.28Z"/>
          </g>
          <g>
            <path class="cls-10" d="M309.09,492.37c-4.14,5.1-8.72,5.76-14.99,6.38-3.04-3.06,5.9-7.21.96-7.02.77-17,.51-34.02.64-51.03.04-4.82.98-9.72.64-14.67,1.15-.25,5.57.35,6.06,0,1-.7-.55-4.29.96-5.1,1.07,23.42,0,48.73,5.74,71.44Z"/>
            <path class="cls-6" d="M303.35,407.54c.26,4.43-.2,8.96,0,13.39-1.51.81.05,4.4-.96,5.1-.49.35-4.91-.25-6.06,0-.13-1.88.35-3.91-.32-5.74-3.48-2.47-5.35,1.31-6.06,3.83.04-6.79-.05-13.62,0-20.41,6.16.17,6.81,5.08,13.39,3.83Z"/>
            <path class="cls-25" d="M302.71,395.42c.54,4.23.39,7.99.64,12.12-6.58,1.26-7.23-3.66-13.39-3.83.02-2.11-.11-4.28,0-6.38,4.49-.11,8.07-2.61,12.76-1.91Z"/>
            <path class="cls-15" d="M295.7,440.7c-.13,17.01.13,34.03-.64,51.03l-5.42,2.55c-3.01.03,2.42-4.66-7.34-2.55,8.03-16.5,6.52-33.35,7.02-51.03h6.38Z"/>
            <path class="cls-9" d="M299.52,382.02c1.61,4.19,2.62,8.94,3.19,13.39-4.68-.7-8.26,1.81-12.76,1.91.11-2.11-.15-4.28,0-6.38.02-.21-.02-.43,0-.64.28-3.5,1.99-7.09,2.55-10.52.21-1.27.38-15.98,1.91-9.57,1.91,8.01,3.22,6.89,5.1,11.8Z"/>
            <path class="cls-28" d="M296.33,426.03c.34,4.95-.6,9.85-.64,14.67h-6.38c.14-5.13-.72-11.76.64-16.58.71-2.51,2.58-6.29,6.06-3.83.67,1.83.19,3.86.32,5.74Z"/>
          </g>
          <path class="cls-2" d="M288.04,234.04c-.35,2.17-1.39,5.07-2.55,7.02-1.84,3.1-2.25,2.02-5.74,2.55-.36-1.01.35-3.46,0-4.46,1.29-.28.28-.36,0-.64s-.36-1.29-.64,0c-1.55-.53-14.67-.53-13.39-5.42.68-2.6,3.91-.22,4.15-.32.42-.18-.09-1.85,1.91-2.55,4.21-1.46,10.32-1.8,14.35-4.46,2.31.36,2.15,6.78,1.91,8.29Z"/>
          <path class="cls-2" d="M287.4,258.91c-5.24,5.94-6.54,9.19-15.31,10.21-2.16.25-4.42,1.16-6.7.64-3.68-.84-26.95-12.64-29.34-15.31-1.74-1.95-.54-1.52.32-3.19,8.66,5.2,14.33,4.6,23.28,7.02.35.09,0,1.99,1.91,2.55,3.61,1.06,14.51,2.07,17.86,1.28,2.33-.55,4.71-5.05,7.97-3.19Z"/>
          <path class="cls-7" d="M279.75,239.14c-.07-.21.09-.54,0-.64.28.28,1.29.36,0,.64Z"/>
          <path class="cls-7" d="M264.44,225.75c.02-.55-1.22.25,0-1.28-.04.41.08.88,0,1.28Z"/>
          <path class="cls-7" d="M288.68,222.56v-.64c1.35.31.01.61,0,.64Z"/>
          <path class="cls-7" d="M279.75,238.5c-.09-.09-.43.07-.64,0,.28-1.29.36-.28.64,0Z"/>
        </g>
        <g>
          <path class="cls-7" d="M251.05,178.55c-1.36-.28-.04-.58,0-.64v.64Z"/>
          <path class="cls-7" d="M216.6,86.06s-.77,1.4-.64-.64c.02.04.75-.1.64.64Z"/>
          <path class="cls-7" d="M278.47,178.55c.02-.06-1.7-.81,0-1.28v1.28Z"/>
          <path class="cls-7" d="M369.69,507.68c-1.17-.23-.56-.22,0-.64v.64Z"/>
          <path class="cls-7" d="M111.36,388.4v.64l-1.28-.32c.24-.58,1.18-.21,1.28-.32Z"/>
          <path class="cls-7" d="M129.22,202.15c-.19-.04-.44,0-.64,0-.08-.65.27-.52.64-.64v.64Z"/>
          <path class="cls-7" d="M296.97,139.64l-.64.64.64-.64Z"/>
          <path class="cls-7" d="M318.02,392.86l-.64.64c-.11-.46-.27-.68-.64-.96l1.28.32Z"/>
          <path class="cls-7" d="M148.99,191.3s-.59.47,0-.64v.64Z"/>
          <path class="cls-7" d="M112.63,386.49c.1-.16-.09-.74.64-.64-.1.19.09.74-.64.64Z"/>
          <path class="cls-7" d="M342.9,342.47s-1.35-.32,0-.64v.64Z"/>
          <path class="cls-7" d="M98.6,249.35v-.64c1.35.32,0,.61,0,.64Z"/>
          <path class="cls-7" d="M63.52,360.97h-.64v-.64c.49-.05.7.15.64.64Z"/>
          <path class="cls-7" d="M230,130.71c0-.06-.97.44,0-1.28v1.28Z"/>
          <path class="cls-7" d="M39.92,507.68c.21-.03.43.02.64,0h-.64Z"/>
          <path class="cls-7" d="M227.45,160.05s-1.35-.32,0-.64v.64Z"/>
          <path class="cls-7" d="M112.63,473.87v-.64h.64c-.43.8-.62.6-.64.64Z"/>
          <path class="cls-7" d="M40.55,507.68v-.64s1.36.35,0,.64Z"/>
          <g>
            <path class="cls-12" d="M130.49,352.68l1.91.64c-4.18,7.2,11,2.85,14.67,1.28,3.78.65,3.45,3.21,5.74,5.74,5.32,5.87,7.24,7.44,15.63,5.1,4.34-1.21,17.51-10.99,20.09-14.67-.16,3.24-16.87,18.64-18.18,18.5-.7-.07-1.11-2.32-1.91-2.55s-3.42,2.05-5.1.64c-1.27,1.11,1.02,1.5.96,1.59-3.86,5.57-17,9.25-22.32,13.71-2.8-2.75-3.33-8.18-5.42-11.48-.98,2.9.23,6.39-.32,9.25-.38,1.96-3.13,5.11-3.19,5.42h-.64c-6.95-4.39-3.94-9.58-6.06-15.31-.69,2.95-2.5,8.14-5.42,9.57-3.44,1.68-4.32-1.54-5.74-.64-.9.57-.96,3.9-1.28,5.1-.12.46-.41.86-.64,1.28-.73-.1-.54.47-.64.64-.37.62-.83,1.38-1.28,1.91-.09.11-1.03-.26-1.28.32l1.28.32c-2.92,5.75-26.62,18.29-21.69,5.1v-.64c-3.08,1.71-5.68,3.63-8.93,5.1-.36-1.6-5.17,2.05-5.42,1.91-.5-.27-1.06-.94-.96-1.59.17-1.12,16.93-12.07,17.22-14.67.03-.26-2.06-4.42-3.19-4.15,2.03-1.58,3.93-3.99,5.74-5.74,1.3-1.25,2.67-1.6,4.46-3.83,1.56-1.94,3.02-4.02,4.46-6.06-1.16-1.66-2.96-.7-4.46-.96-1.18-1.27-1.38-.32-.64-2.23,1.6-4.14,7.67-11.29,9.25-16.27,1.74,26.35,11.71,7.21,11.48-6.38,1.42,2.99,3.75,21.16,9.57,19.77,2.42-.58,2.04-4.12,2.23-5.74Z"/>
            <path class="cls-23" d="M132.41,137.08l.64.64c2.34,7.07-6.18,13.04-5.74,14.99.46,2.07,6.5-2.89,9.57-2.87l1.28,1.28c.08.15,1.45-.74,1.28,1.59-.29,3.98-9.04,9.85-9.57,14.03,1.39,3.8,28.53-9.22,13.39,7.34-.02-.07-1.03.24-1.28-.32,2.05-.87-1.29-4.03-1.59-4.15-1.98-.76-10.86.25-11.8-2.87-.45-1.51,1.08-2.93.64-4.46-.07-.24-3.21-2.35-3.83-3.19-1.58-2.15-.08-3.47-4.15-4.78-7.15,9.84,2.86,13.3-.32,22.01l2.55.32c-1.93.88-.53,1.9-4.46,1.28-1.23-.2-2.41-2.26-2.87-1.91-.79.59,0,2.77-.32,3.51-2.61,5.86-2.05,5.54-2.23,11.8l4.78-5.74c-.43,2.39-4.68,10.26-1.28,10.84-1.56,2.1-.16,3.26-1.28,5.42-.34.66-1.55-.03-1.91.64-.84,1.55.08,3.05,0,3.19-1.93,3.34-5.69,7.25-8.29,10.21-.9,1.61,2.4,1.62,2.55,1.59-1.93,5.22,5.65-.17,6.06,0,.38.16.51,2.34.96,2.87.31.37,1.61-.74,1.91.64,1.35,6.14-14.79,18.86-19.45,22.01-3.77,2.54-9.06,6.02-13.08,6.38-6-3.05-1.7-4.8-2.23-5.74-.36-.64-13.73-5.54-9.89-8.61.8-.64,12.96-.11,14.35-.32.51-.08.12-1.19.64-1.28,10.85-1.79,22.71-1.18,26.47-14.35-2.2,1.61-14.11,3.45-8.29,0l-.96-1.59c-3.92,1.87-7.68,3.17-10.52-.96-.56-.81.77-2.62.32-2.87-.36-.2-5.12-.09-6.38-.64-1.05-.46-6.84-7.42-7.34-9.25,1.91-3.71,28.85,3.78,31.89-4.46-2.56.25-1.63-4.98-1.91-5.1-1.2-.51-5.16.7-7.34.32-6.02-1.07-2.06-5.08-2.23-5.42-.23-.44-7.64-4.1-7.02-7.02.99-2.31,13.67,1.11,17.22-.96,2.55-1.48,1.16-1.33,0-1.91-1.56-.79-4.67-.43-5.74-2.23-1.39-2.36,1.32-4.64,1.28-5.1-.12-1.34-5.01-1.97-5.74-7.97l4.46-1.28c1.45-.02,7.97.08,8.29-.32-1.87-2.14-3.89-3.31-5.1-6.06,2.77,1.14.05-4.32,2.23-5.1.7-.25,5.01.62,6.7-2.87-.64-.2-1.41-.89-1.91-.96v-1.28l1.91.32c2.86-6.81,5.91-12.62,13.08-5.42,2.79-1.19.56-1.94.96-4.46.35.27.35.22.64.64Z"/>
            <path class="cls-5" d="M120.92,332.27c2.79,3.65,5.55,4.99,9.57,7.02-1.59,1-2.21,6.01,0,5.74-.06,2.43.28,5.36,0,7.65-.2,1.62.19,5.16-2.23,5.74-5.82,1.39-8.15-16.78-9.57-19.77.23,13.59-9.75,32.72-11.48,6.38-1.58,4.97-7.65,12.13-9.25,16.27-.74,1.91-.55.96.64,2.23-.83-.14-2.42-.65-2.55-.64-5.25.5-18.52,11.24-12.44-2.55l-.96-.64c-4.92,1.99-9.72,5.97-15.31,4.78-1.19-.73,5.71-7.83,7.34-9.25,7.62-6.66,10.83-8.85,18.18-16.58,1.82-1.91,4.84-3.56,7.02-6.06,1.03-1.18,4.18-7.81,4.78-7.97,4.37-1.15,1.65,2.8,7.34-3.19,3.03-3.19,3.21-3.11,4.46-7.65-.9,2.21,1.78,3.04,1.91,4.15.79,6.57-2.75,7.43,2.55,14.35Z"/>
            <path class="cls-5" d="M117.73,257.64c.16,5.98,1.03,11.81,0,16.9-.14.69-3.18,3.58-3.19,3.83-.02.44,4.89,5.6,5.74,6.7,1.49,1.91,5.33,5.36,5.74,6.38,1.21,2.98,2.48,18.36-1.59,19.14-4.87.93-3.53-11.92-5.74-14.03-1.17,5.72-.67,11.56-2.23,17.22-1.25,4.55-1.44,4.46-4.46,7.65-7.16,3.92-8.21,1.68-12.76-2.87,1.85-2.51.74-7.71,1.28-10.52,1.78-9.41,5.47-6.84,9.57-13.08,1.54-2.35,2.69-6.18,3.19-8.93-6.08,3.47-3.58-.73-5.1-1.59-.47-.27-2.13.97-3.19,1.28-1.25.37-4.48,2.63-5.1.96l14.03-14.67,3.83-14.35Z"/>
            <path class="cls-23" d="M100.51,308.03c-4.03,5.11-3.92,15.07-13.39,17.22l-.96-7.02c-5.08,5.05-14.3,9.02-20.73,4.78-.89-2.13,1.78-5.69,1.28-6.38s-13.55-2.94-13.39-7.97c3.58,4.11,3.59,1.88,4.78,1.91,9.03.24,15.46-3.1,23.6-5.1.98-.24,3.2-1.01,2.87-2.55,8.59-1.98,22.2-8.79,23.6-18.5,1.53.86-.98,5.07,5.1,1.59-.5,2.75-1.65,6.58-3.19,8.93-4.09,6.24-7.79,3.67-9.57,13.08Z"/>
            <path class="cls-2" d="M143.25,174.08c.52,1.49,3.09,1.03-.96,3.83-2.62,1.81-13.72,2.77-13.08,5.42.99,4.06,21.02,1.35,22.64,2.23.46.25,1.11.97.96,1.59-.03.56-3.61,3.11-3.83,3.51-.59,1.11,0,.61,0,.64-.09.3,2.67,2.7-.96,5.1-.58.39-11.65,2.44-13.08,2.55-8.06.63-5.59-5.55-7.34-5.74-.13-.02-.95,1.92-1.91,1.91-3.81-.04-5.9-2.52-4.78-6.7.83-3.1,10.09-5.19,5.1-13.39-.55-.53-1.66,1.19-2.55,1.59l-2.55-.32c3.18-8.71-6.83-12.17.32-22.01,4.07,1.31,2.57,2.64,4.15,4.78.62.84,3.76,2.95,3.83,3.19.44,1.53-1.09,2.95-.64,4.46.94,3.12,9.82,2.11,11.8,2.87.31.12,3.64,3.27,1.59,4.15.24.56,1.25.25,1.28.32Z"/>
            <path class="cls-5" d="M134.96,198.96c-.15,4.26-3.27,1.78-5.74,2.55-.36.11-.72-.01-.64.64-.99.04-.46,1.28-.96,1.28-2.69,0-2.21-1.4-3.19-1.28-3.29.42-3.16,7.15-2.87,9.89.26,2.46,5.34,12.11,5.1,12.76-.27.71-4.86,1.49-5.1,1.91-1.23,2.17,6.93,35.97,13.08,18.18,1.2-.9,4.67,3.29,5.42,3.83.28,2.37-1.75-.64-3.19,1.59-.37,1.09,1.78,1.26,1.91,1.59.39.96.6,2.06,1.28,2.87l-.96,1.59-6.7-.64h-.64c-1.29-2.63-5.91-6.09-8.29-7.65-1.17-.77-3.9-5.67-5.74,0-.13-1.66-.39-5.74-1.91-5.74,4.36-9.04,3.08-23.58,3.19-34.44.04-4.1-.21-9.64,1.28-13.08-.63-.49-2.97,1.3-3.19,1.59-3.4-.59.85-8.46,1.28-10.84s-.44-5.25.64-7.65c3.93.63,2.54-.4,4.46-1.28.89-.41,2-2.13,2.55-1.59,4.99,8.21-4.28,10.3-5.1,13.39-1.12,4.18.97,6.66,4.78,6.7.96,0,1.78-1.93,1.91-1.91,1.74.2-.73,6.37,7.34,5.74Z"/>
            <path class="cls-17" d="M117.73,248.07c.24,3.14-.08,6.41,0,9.57l-3.83,14.35-14.03,14.67c.63,1.67,3.85-.59,5.1-.96-.96,1.89-7.79,4.43-8.93,3.51l.32-3.51c-1.44-.41-1.83.9-2.87,1.28l-5.1-.32c3.92-2.25,5.37-9.79,7.02-12.12,4.08-5.78,13.69-9.93,15.95-16.9,1.67-5.15-.7-1.73-1.28-2.87-.66-1.3,1.58-3.18,0-4.78,1.77-1.61,4.69-5.47,5.74-7.65,1.52,0,1.79,4.08,1.91,5.74Z"/>
            <path class="cls-17" d="M115.82,242.33c-1.05,2.18-3.97,6.04-5.74,7.65-3.51,3.19-7.16,5.4-12.12,5.74-.98-2.07.39-4.6.64-6.38,0-.03,1.35-.32,0-.64-5.03,1.18-8.9,3.25-14.03.64,4.01-.36,9.31-3.84,13.08-6.38,4.67-3.15,20.81-15.86,19.45-22.01-.3-1.37-1.61-.27-1.91-.64-.44-.53-.58-2.71-.96-2.87-.41-.17-7.98,5.22-6.06,0,4.19-.81,8.17-6.58,10.84-9.57-.11,10.87,1.17,25.4-3.19,34.44Z"/>
            <path class="cls-23" d="M111.36,257.64h-2.87l-10.84,12.12c-5.41,1.33-10.7,2.5-15.31,5.74-2.97,2.09-4.57,7.89-10.52,7.65-.75-1-.51-.78-.64-1.91.3-.34,1.94-2.09,1.91-2.23-.03-.15-1.51-.73-1.91-.96-1.08-.61-15.97-6.17-11.16-9.57,1.9-1.34,29.34,3.22,41.46-5.1,1.47-1.01,10.34-9.43,6.38-10.21-.56-.11-8.14,6.22-9.89,2.55,4.96-.34,8.61-2.55,12.12-5.74,1.58,1.6-.66,3.49,0,4.78.58,1.14,2.94-2.28,1.28,2.87Z"/>
            <path class="cls-26" d="M98.6,370.54c-1.8,2.23-3.17,2.58-4.46,3.83-3.08-5.46-6.96,4.04-11.16,3.83l-.32,5.74c-2.33,1.69-10.75,5.42-11.48,7.97-.15.54,1.81-.72.64,2.23-6.44-2.37-15.05,2.18-20.41-3.51,14.43-8.52,31.57-13.12,44.01-25.2-.51,2.37-.82,4.94-1.28,7.34l4.46-2.23Z"/>
            <path class="cls-23" d="M92.86,338.65l-1.59-3.19c-10.61,12.33-26.49,16.65-39.55,25.51,2.26,3.6,13.22-4.6,11.8,0,.07-.49-.15-.68-.64-.64-3.76.36-10.2,3.98-14.99,1.28-3.74-2.11.16-4.03.32-5.42s-1.08-.55-1.28-1.59-2.26-.31-.32-1.91c12.67-2.4,24.4-7.51,35.72-13.39.58-.3,2.64-1.25.96-1.91,6.99-3.45,14-7.78,17.22-15.31,1.54,7.61-9.86,9.85-7.65,16.58Z"/>
            <path class="cls-38" d="M92.86,338.65c-7.35,7.73-10.55,9.92-18.18,16.58-1.62,1.42-8.52,8.52-7.34,9.25,5.59,1.19,10.39-2.79,15.31-4.78-3.96,4.17-21.4,11.69-19.77,1.28h.64c1.42-4.6-9.55,3.6-11.8,0,13.05-8.86,28.94-13.19,39.55-25.51l1.59,3.19Z"/>
            <path class="cls-39" d="M111.36,257.64c-2.26,6.98-11.87,11.12-15.95,16.9-1.64,2.33-3.1,9.87-7.02,12.12l5.1.32c-14.72,5.25-9.66-2.05-11.16-2.55-1.36-.45-7.84,2.3-10.52-1.28,5.96.24,7.55-5.57,10.52-7.65,4.61-3.24,9.9-4.41,15.31-5.74l10.84-12.12h2.87Z"/>
            <path class="cls-14" d="M124.75,117.31c-1.73.51-.06,2.35,0,2.55.19,2.52-.2,5.14,0,7.65.86,11.06.5,3.84,7.02,8.93-.39,2.53,1.84,3.28-.96,4.46-7.16-7.2-10.22-1.39-13.08,5.42l-1.91-.32c0-2.75-5.98-11.65-.96-13.39,1.15-.4,4.68.56,5.42-.32.38-.45-1.19-8.49-.64-11.8,1.9-.53,1.01-2.05,1.28-3.19.43-1.8.82-3.75,2.23-5.1.7.03,1.48,4.28,1.59,5.1Z"/>
            <path class="cls-14" d="M46.93,354.59c-3.1-.21-11.16-5.44-9.57-8.61.73-1.46,21.32-1.04,25.2-1.59,6.29-.9,14.96-4.17,20.73-7.02,1.68.66-.38,1.61-.96,1.91-11.32,5.88-23.05,11-35.72,13.39-1.94,1.6.12.84.32,1.91Z"/>
            <path class="cls-5" d="M88.39,380.11c1.13-.27,3.22,3.89,3.19,4.15-.29,2.6-17.05,13.55-17.22,14.67-.1.65.46,1.33.96,1.59.25.14,5.06-3.51,5.42-1.91-3.78,1.71-7.38,4.56-11.8,3.83-.96-.51,2.51-7.38,2.87-8.29,1.17-2.96-.79-1.69-.64-2.23.73-2.55,9.15-6.29,11.48-7.97,1.79-1.3,4.06-2.52,5.74-3.83Z"/>
            <path class="cls-17" d="M100.51,308.03c-.53,2.81.57,8.01-1.28,10.52,4.54,4.55,5.59,6.79,12.76,2.87-5.68,5.99-2.97,2.04-7.34,3.19-.6.16-3.76,6.79-4.78,7.97-2.18,2.5-5.2,4.15-7.02,6.06-2.2-6.73,9.2-8.97,7.65-16.58-.93-2.04-11.06,5.42-13.39,3.19,9.47-2.16,9.37-12.12,13.39-17.22Z"/>
            <path class="cls-14" d="M53.31,308.67c-.24-.27-1.94-1.19-1.91-1.59,1.96-2.55,3.19-2.44,6.38-2.87h2.55c8.59-.64,15.47.75,24.24-1.28.32,1.54-1.89,2.31-2.87,2.55-8.15,2-14.57,5.35-23.6,5.1-1.2-.03-1.2,2.2-4.78-1.91Z"/>
            <path class="cls-30" d="M98.6,363.52c1.5.25,3.3-.7,4.46.96-1.45,2.04-2.9,4.12-4.46,6.06l-4.46,2.23c.46-2.39.77-4.96,1.28-7.34.19-.9.57-1.64.64-2.55.13-.01,1.72.5,2.55.64Z"/>
            <path class="cls-14" d="M108.8,156.22c-.57-1.29-2.62-6.99-1.91-7.97,1.92.21,7.77-1.1,8.93-.96.51.06,1.28.76,1.91.96-1.69,3.49-6,2.62-6.7,2.87-2.18.78.54,6.24-2.23,5.1Z"/>
            <path class="cls-7" d="M115.82,384.57h-1.91c.32-1.21.37-4.53,1.28-5.1.69,1.73.58,3.3.64,5.1Z"/>
            <path class="cls-31" d="M105.62,162.6l-4.46,1.28c-.01-.11-2.12-.77-.96-1.91,2-.19,3.38.67,5.42.64Z"/>
            <path class="cls-7" d="M124.75,127.52c-.2-2.52.19-5.14,0-7.65.68,2.45,1.36,5.26,0,7.65Z"/>
            <path class="cls-7" d="M71.17,281.24c-.12-1.04.08-2.15,0-3.19.41.23,1.89.8,1.91.96s-1.61,1.89-1.91,2.23Z"/>
            <path class="cls-7" d="M119.65,120.5c.18-1.1,0-2.54,1.28-3.19-.27,1.14.62,2.66-1.28,3.19Z"/>
            <path class="cls-7" d="M111.36,181.1v-1.91c1.16.58,2.55.43,0,1.91Z"/>
            <path class="cls-7" d="M138.15,151.12l-1.28-1.28c.07,0-.17-1.12,1.28-.32.18.1-.17,1.27,0,1.59Z"/>
            <path class="cls-7" d="M60.33,304.2h-2.55c.82-.11,1.72.06,2.55,0Z"/>
            <path class="cls-7" d="M124.75,119.86c-.06-.2-1.73-2.05,0-2.55.11.82-.06,1.72,0,2.55Z"/>
            <path class="cls-14" d="M133.04,137.72l-.64-.64s.35-.24.64.64Z"/>
            <path class="cls-17" d="M128.58,202.15c.2,0,.45-.04.64,0-1.02,3.37,5.73,4.83,7.65,6.38,1.94,1.56,4.3,6.48,7.65,7.02,1.46.7-1.75,1.26,0,2.55.13.1.88-.05,1.28,0,.2,1.57,3.2,4.84.96,5.74l-14.99.32c-1.48,1.82,11.92,6.28,12.76,7.34-3.11-.14-6.05.34-9.57,0-.08,0,.44-1.5-.96-1.28-.61.1-2.34,2.8-2.23,3.51.12.78,10.68,7.77,12.44,8.61.17.08,3.28-.43,3.83,0,1.27.99-2.79,2.72,2.87,3.19-3.35,2.84.86,4.11-2.23,5.74-2.69,1.42-4.38-.2-6.38-1.28-.97-.52.07.36-2.23-1.28-.75-.54-4.22-4.73-5.42-3.83-6.15,17.79-14.31-16-13.08-18.18.24-.42,4.84-1.2,5.1-1.91.24-.64-4.85-10.3-5.1-12.76-.29-2.73-.42-9.47,2.87-9.89.98-.12.5,1.28,3.19,1.28.5,0-.03-1.23.96-1.28Z"/>
            <path class="cls-2" d="M144.52,215.54c-3.36-.54-5.71-5.46-7.65-7.02-3.1-3.16,5.68,1.22,6.06,1.28,1.08.15,1.68-1.31,1.91-1.28,3.25.54,7.5,1.9,10.84,2.55,2.59,2.9-10.41,4.59-11.16,4.46Z"/>
            <path class="cls-7" d="M170.68,212.35v-1.28h.64c-.04.06-.1.49-.64,1.28Z"/>
            <path class="cls-7" d="M145.8,217.45v.64c-.4-.05-1.14.1-1.28,0,.48-1.88,1.21-.62,1.28-.64Z"/>
            <path class="cls-27" d="M141.97,382.66c2.98,2.92,4.82,2.6,7.65,3.83,1.16.5,2.69,1.2,3.19,2.55-3.66.47-6.73,3.34-9.25,3.83-1.33.25-2.93-2.85-4.78.32.81.62,1.31,1.45,1.91,2.23-2.69-.98-7.89-5.86-7.65-8.93.02-.21-.04-.44,0-.64.06-.31,2.81-3.46,3.19-5.42.55-2.86-.66-6.35.32-9.25,2.09,3.31,2.62,8.73,5.42,11.48Z"/>
            <path class="cls-1" d="M136.87,348.85c-.72.72-4.31,4.19-4.46,4.46l-1.91-.64c.28-2.3-.06-5.23,0-7.65.25-10.59,3.69.48,6.38,3.83Z"/>
            <path class="cls-29" d="M94.13,374.37c-1.81,1.75-3.71,4.16-5.74,5.74-1.68,1.31-3.95,2.53-5.74,3.83l.32-5.74c4.2.21,8.09-9.28,11.16-3.83Z"/>
            <path class="cls-2" d="M119.01,207.89c-2.68,2.99-6.65,8.76-10.84,9.57-.15.03-3.45.02-2.55-1.59,2.6-2.96,6.36-6.86,8.29-10.21.08-.14-.84-1.63,0-3.19.36-.66,1.57.03,1.91-.64,1.12-2.16-.28-3.32,1.28-5.42.22-.29,2.56-2.09,3.19-1.59-1.49,3.43-1.23,8.97-1.28,13.08Z"/>
            <path class="cls-38" d="M119.01,177.91c-1.08,2.4-.2,5.22-.64,7.65l-4.78,5.74c.18-6.26-.38-5.94,2.23-11.8.33-.74-.47-2.91.32-3.51.46-.34,1.64,1.72,2.87,1.91Z"/>
            <path class="cls-33" d="M149.63,322.06c-9.69,3.45-18.56,6.37-29.02,7.02l.32,2.55v.64c-5.3-6.92-1.76-7.78-2.55-14.35-.13-1.11-2.82-1.94-1.91-4.15,1.56-5.66,1.06-11.51,2.23-17.22,2.21,2.12.87,14.96,5.74,14.03,4.07-.78,2.81-16.15,1.59-19.14l11.48,1.59c-2.85,4.09-7.38,7.12-7.02,12.76,2.81,4.65,6.5,1.02,10.52,2.87,1.39.64,1.73,3.67,2.23,4.15,2.78,2.65,11.73,8.05,6.38,9.25Z"/>
            <path class="cls-17" d="M123.48,248.07c-3.66,1.32,2.88,8.75,4.15,9.57.47.31,3.9,1.13,4.15,1.28,3.12,1.83,13.96,8.61,16.27,9.57,4.18,1.74,10.02,1.79,14.35,3.51-9.4,3.16-21.08,7.63-30.94,8.61-2.38.24-8.24-.64-10.21-1.28l-.96,1.59c.51,3.69,16.21,1.55,19.14,4.15-2.57.24-7.56,1.33-9.89,1.28-3.84-.1-5.94-2.07-9.25-1.28-.85-1.1-5.76-6.26-5.74-6.7.01-.25,3.05-3.14,3.19-3.83,1.03-5.09.16-10.93,0-16.9-.08-3.16.24-6.42,0-9.57,1.85-5.67,4.57-.77,5.74,0Z"/>
            <path class="cls-33" d="M123.48,248.07c2.38,1.57,7,5.02,8.29,7.65.33.67.32,2.37,0,3.19-.25-.15-3.68-.97-4.15-1.28-1.26-.82-7.81-8.24-4.15-9.57Z"/>
            <g>
              <path class="cls-15" d="M124.11,420.93c.08,2.96-.07,5.96,0,8.93.35,14.16-2.52,44.72,0,56.45.03.13,1.02,1.82,1.28,2.23l-2.23,5.74-3.51-3.51c2.83,12.32-1.68,4.29-2.23,4.15-.16-.04-1.07,1.29-1.28,1.28-3.37-.16-7.35-.12-10.52-1.28,3.72-4.73,3.58-16.45,5.74-20.73.3-.59,1.23-.23,1.28-.32.02-.04.21.16.64-.64.67-1.25,2.51-2.07,2.55-2.23.64-2.41-.31-7.85,0-10.84.96-9.1,1.56-18.76,1.28-28.7-.03-1.16.64-3.15-1.28-2.87.19-5.66.57-11.61.64-17.22,10.19-1.69,3.63,4.58,7.65,9.57Z"/>
              <path class="cls-28" d="M123.48,407.54c.25,4.51.51,8.84.64,13.39-4.03-4.99,2.53-11.25-7.65-9.57.05-4.12-.6-8.96-.64-13.39,1.86-.36,5.95,1.05,5.74-1.28.2,3.03,1.76,8.07,1.91,10.84Z"/>
              <path class="cls-13" d="M113.27,473.23h-.64c-2.19-3.73,1.25-4.49,1.28-4.78,1.08-12.14,1.47-26.83,1.91-39.87,1.91-.28,1.24,1.71,1.28,2.87.29,9.94-.32,19.6-1.28,28.7-.31,3,.64,8.43,0,10.84-.04.16-1.88.98-2.55,2.23Z"/>
              <path class="cls-18" d="M122.2,385.85c.03,1.72-.64,2.72-.64,3.83.01,2.3-.15,4.72,0,7.02.21,2.33-3.88.91-5.74,1.28-.03-3.61.05-7.24,0-10.84l6.38-1.28Z"/>
              <path class="cls-25" d="M120.92,380.11c1.43,1.97,1.24,3.49,1.28,5.74l-6.38,1.28c-.01-.84.03-1.71,0-2.55-.06-1.8.05-3.38-.64-5.1,1.42-.9,2.3,2.32,5.74.64Z"/>
              <path class="cls-10" d="M138.78,486.63c-1.83-.54-3.87-1.1-5.74-1.59l3.19,5.1c-.1,3.39-3.92,2.17-2.87-1.59-2.28,3.69-5.66,3.75-7.97,0-.25-.41-1.25-2.11-1.28-2.23-2.52-11.73.35-42.29,0-56.45,1.32-.24,6.46.46,7.02-.32.79-1.12-.72-20.64,0-23.92h.64c.65,27-.36,54.88,7.02,81.01Z"/>
              <path class="cls-9" d="M132.41,385.85v.64c-.73-.11-.6.61-.64.64-3.52,2.78-5.49,3.19-10.21,2.55,0-1.11.67-2.1.64-3.83-.04-2.25.15-3.78-1.28-5.74,2.92-1.43,4.73-6.62,5.42-9.57,2.12,5.73-.89,10.92,6.06,15.31Z"/>
              <path class="cls-18" d="M131.13,405.62c-.72,3.28.79,22.8,0,23.92-.55.78-5.69.08-7.02.32-.07-2.97.08-5.97,0-8.93-.13-4.56-.39-8.88-.64-13.39l7.65-1.91Z"/>
              <path class="cls-37" d="M131.77,387.12c.11,6.15-.15,12.35,0,18.5h-.64l-7.65,1.91c-.15-2.78-1.71-7.82-1.91-10.84-.15-2.3.01-4.72,0-7.02,4.72.64,6.68.23,10.21-2.55Z"/>
            </g>
            <path class="cls-30" d="M188.54,385.21c1.82.38,3.51,4.83,2.23,5.74-2.14.97-15.29-2.69-15.63-.32,1.58,1.37,8.19,9.5,5.42,10.52-7.94-.67-15.91-1.72-22.64-6.38,4.17,1.11,2.42-1.68,5.74-3.19,3.32.64,11.99,1.52,7.02-3.19,3.92-.86,9.29-6.4,9.89-6.38,1.66.06.98,6.12,7.97,3.19Z"/>
            <path class="cls-34" d="M152.82,389.04c.37-.05,5.46-.04,5.74,0,2.78.4,4.79,2.49,5.1,2.55-3.32,1.51-1.57,4.3-5.74,3.19-1.54-.41-1.82-1.18-3.19-1.28-.77-.99-1.85-1.82-2.87-2.55,4.32,8.17-4.31.68-7.34,7.02-1.91-1.03-2.05-.23-3.83-2.55-.6-.79-1.1-1.62-1.91-2.23,1.85-3.17,3.46-.06,4.78-.32,2.52-.48,5.59-3.36,9.25-3.83Z"/>
            <path class="cls-34" d="M154.73,393.5s-1.19.19-.64.96c1.33,1.85,4.24,3.88,4.15,6.7-4.92.49-9.41-.85-13.71-3.19,3.03-6.34,11.65,1.15,7.34-7.02,1.02.73,2.1,1.56,2.87,2.55Z"/>
            <path class="cls-1" d="M168.13,384.57c-3.59,3.88-2.89,5.01,2.55,3.83,4.98,4.71-3.7,3.83-7.02,3.19-.31-.06-2.32-2.16-5.1-2.55,2.13-1.78,7.63-5.2,9.57-4.46Z"/>
            <path class="cls-39" d="M134.96,231.49c.85,2.45,5.55,5,7.97,6.38.51.29,2.62-.29,3.19,0,.5.25,3.55,4.35,3.83,4.46,1.16.47,13.38-1.27,15.63-1.59,1.08-.16,2.74-1.19,2.55.96-7.1,3.24-8.63,4.53-17.22,3.83-5.66-.47-1.6-2.2-2.87-3.19-.55-.43-3.65.08-3.83,0-1.76-.84-12.32-7.84-12.44-8.61-.11-.71,1.62-3.41,2.23-3.51,1.4-.23.88,1.27.96,1.28Z"/>
          </g>
          <g>
            <path class="cls-2" d="M220.43,114.12c-2.03,1.25-4.18,2.28-6.7,1.91-1.43,7.08,6.61,4.85,9.89,6.38,2.71,1.26,1.46,3.15,2.55,4.78.48.72,3.06.91,3.19,1.28.07.18-1.56,1-1.28,1.91.2.65,2.04,1.31,1.91,2.55-.53,5.05-12.11-.89-13.71-4.15.65,3.83,6.65,6.46,9.89,6.7-4.78,2.02-8.67.32-13.08-1.59-5.56,15.08,24.85,10.1,28.07,12.76.39.33.56,2.96.96,3.83-3.04,4.2-.32,2.68-.64,3.51-1.4,3.68-10.27,6.02-14.03,5.42-1.35.32,0,.61,0,.64.22,1.03,2.3,1.94.96,3.83l-9.89.96c5.41,8.1,16.14,6.63,24.88,6.7l-13.08.64.64,1.91,23.28,1.91c-.65.55-2.7,1.18-3.19,1.91-.04.06-1.36.35,0,.64,6.18,7.88-20.67,7.99-21.05,10.52,6.41,4.57,16.14,3.06,23.92,4.15l.96,2.23c-3.42,2.84-9.15,6.44-13.71,4.78l-.64,1.28,2.23,2.87-.96,1.59c-2.49,1.06-9.54-1.81-10.84-1.28-.42.17-.92,2.81-1.91,3.19-1.95.75-10.23-1.67-10.52-.96,5.48,6.77,14.57,8.54,22.96,9.25l-1.59,1.91c8.39,2.36,16.68,2.66,25.51,2.55.11,0,1.8,1.28,1.91,1.28,1.29-.05,4.74-6.97,4.15-1.91-.41.03-6.76,4.14-7.02,4.46-1.22,1.52.02.72,0,1.28-.55,2.78-7.69,4.83-9.89,4.46-1.37-.23-19.3-9.44-21.69-10.84-1.89-1.12-7.11-3.88-8.93-5.1-2.77-1.86-5.24-6.45-6.38-7.02-3.14-1.58-2.17,1.55-3.83,1.91-.35.08-.15-1.14-1.59-.64-4.32-1.65-1.13-4.72-1.28-5.42-.21-1.02-4.29-3-5.1-4.46-.2-.37-1.4-7.27-1.28-7.65,1.62-4.87,11.64-1.3,11.48-6.06,5.06.66,3.58-10.64,1.28-13.08-1.41,3.87.72,7.74-4.46,9.25-5.03-5.34-7.09-11-5.74-18.5,3.42-3.2,13.06,2.09,13.39-1.59.02-.19-1.43-3.41-1.59-3.51-1.2-.76-3.64.68-3.83.64-.41-.09-1.49-1.81-1.91-1.91-.23-.06-1.83,2.42-4.15.32-3.35-3.04-.21-11.93-3.19-14.99,0-1.57.72-3.35.64-3.51-.18-.35-6.51-.9-6.38-3.83,10.8-6.05,5.03-18.84,7.65-26.15,1.47-4.09,11.87,3.23,14.67,3.19l-1.91,2.87Z"/>
            <path class="cls-23" d="M215.96,85.42c-.13,2.04.6.62.64.64,7.78,2.91-3.95,16.78-1.91,18.18l11.48-2.55c.42,5.17-1.34,9.73-5.74,12.44l1.91-2.87c-2.81.04-13.2-7.28-14.67-3.19-2.63,7.31,3.15,20.1-7.65,26.15-.13,2.93,6.19,3.48,6.38,3.83.08.16-.65,1.94-.64,3.51.04,7.73-5.5,12.28-5.74,14.35-.35,3.06,4.88,4.15,5.1,4.46,1.14,1.62-6.53,25.21-12.12,24.24.91,5.69,5.02-.37,5.42-.32.5.06,4.08,5.75,5.42-1.28-.22,1.35.27,3.2,0,4.46-7.23-3.09-5.2,2.27-7.65,6.06-2.25,3.48-5.5,4.16-5.74,4.46-.22.28.22,1.92,0,2.23l-2.23-2.55c-3.31,4.39-13.17,7.02-16.58,10.21-2.42,2.25,1.08,1.37-.32,3.19h-.64c-2.55,1.47-13.96-.84-14.03.32-.02.31,1.88.31,1.28,1.28-1.69,2.69-9.07,4.16-12.12,4.78-.07.01-.79-1.25-1.28.64-1.75-1.29,1.46-1.85,0-2.55.75.12,13.76-1.56,11.16-4.46-3.34-.65-7.59-2.01-10.84-2.55-.23-.04-.84,1.43-1.91,1.28-.38-.05-9.16-4.43-6.06-1.28-1.93-1.55-8.67-3.01-7.65-6.38.39.08,5.28,4.18,6.7,4.46,5.71,1.16,8.17-1.35,11.16-1.91,7.4,5.99,17.01-.86,25.2-2.55l-.96-1.28c8.98-1.97,20.53-4.93,25.51-13.08-.52-.66-12.09,1.64-14.99.96-1.44-.34-4.2-3.71-4.46-3.83-.24-.1-3.62.23-5.1-.64-2.99-1.75-1.19-4.89-2.23-6.06-1.01-1.13-16.82-8.97-12.76-12.12,12.9.32,28.49,3.34,39.55-4.46-.23-1.67-3.2-.59-4.78-1.59-1.9-1.21.68-3.14-1.28-3.83-1.69-.59-5.82,1.71-8.93,0-2.45-1.35-1.42-4.57-1.59-4.78-.69-.84-4.41-1.39-5.42-2.23-13.73-11.46,7.89-5.32,14.67-6.38.73-.11,1-1.85,1.28-1.91,1.56-.37,5.27.46,6.38,0,.71-.3,1.71-3.35,1.59-3.51-.29-.4-6.33-.5-7.97-1.59-2.89-1.93-2.02-4.54-2.23-4.78-2.96-3.35-12.9-10.5-.96-11.16,2.4-.13,5.11.78,7.65.64,2.08-.11,5.04.42,6.7-1.28v-.64c-2.43-1.77-4.48-2.53-6.38-5.1l3.19.96c1.23-2.19-.51-4.7,0-6.38.67-2.22,5.24-1.04,5.1-6.06-.1-3.64-5.43-8.54-4.46-13.08.55-2.62,6.36-4.71,7.02-5.74.41-.65-.65-13.16,2.87-14.35,2.85-.42,1.55,2,2.23,3.51.3.65,1.76,0,1.91.64.59,2.4-.84,7.96-.64,8.93.3,1.46,2.23,1.52,3.19,3.51Z"/>
            <path class="cls-23" d="M230,129.43c-.97,1.71,0,1.21,0,1.28-.06.69,1.29,1.32,1.28,1.59-.18,4.93-11.91,5.47-15.63,4.15-3.71,8.02,13.02,7.31,17.86,7.02,2.49-.15,10.68-3.84,14.03-2.55,3.32,1.27-4.8,8.71-5.42,9.57-.39-.87-.56-3.5-.96-3.83-3.22-2.66-33.62,2.32-28.07-12.76,4.4,1.91,8.29,3.61,13.08,1.59-3.23-.24-9.23-2.87-9.89-6.7,1.6,3.26,13.18,9.2,13.71,4.15.13-1.24-1.72-1.91-1.91-2.55-.28-.92,1.34-1.73,1.28-1.91-.13-.36-2.71-.56-3.19-1.28-1.09-1.64.16-3.52-2.55-4.78.02-3.15,13.74-2.3,14.03-1.59-.27,4.24-6.37,6.34-7.65,8.61Z"/>
            <path class="cls-23" d="M254.24,175.99l-23.28-1.91-.64-1.91,13.08-.64c2.21-1.37,16.81-4.03,17.22-1.59-1.62,3.04-4.05,4.08-6.38,6.06Z"/>
            <path class="cls-14" d="M203.85,102c.13,5.02-4.44,3.84-5.1,6.06-.51,1.68,1.23,4.19,0,6.38l-3.19-.96c-1.87-2.54-2.56-5.27-1.28-7.65.3-.56,1.63-1.41,0-1.91,1.61-3.79,5.32-1.21,9.57-1.91Z"/>
            <path class="cls-14" d="M171.31,200.87l.96,1.28c-8.19,1.69-17.8,8.54-25.2,2.55,7.97-1.5,16.39-2.11,24.24-3.83Z"/>
            <path class="cls-7" d="M194.28,105.83c-.79.13-.07-1.74,0-1.91,1.63.5.3,1.35,0,1.91Z"/>
            <path class="cls-17" d="M246.58,292.72c6.89,4.06,8.99,6.64,17.54,8.29,5.21,1.01,20.12,3.71,21.37-2.55,10.15,3-9.96,9.56-10.21,10.52l3.19,4.15c-1.79.78-5.48,3.68-7.34,3.83-1.67.13-10.94-4.46-10.52.32.04.49,6.42,5.73,2.87,7.97l-11.16-.64c-1.16-.45-3.53-1.26-4.46-1.91-3.14-2.19-7.87-11.98-8.61-12.12-3-.57-.83,10.91-2.87,12.44-9.39-.78-6.23-10.88-11.8-16.9-2.11.56,3.93,16.17-1.91,16.58-1.28.09-5.14-1.88-5.42-1.91-.79-3.19-5.51-2.85-6.06-3.19-2.31-1.45-.64-2.7-4.15-3.83,0-5.09,2.69-18.93,1.91-22.32,7.39-.28,5.2-12.89,4.46-18.18-.34-2.46-2.94-6.29-3.19-8.61-.19-1.74,1.03-7.68,1.28-9.89,7.98,23.88,8.63-2.23,9.89-2.23,1.62,2.45,2.39,5.79,2.87,8.61.43,2.52-.09,11.61.64,13.39,2.42,5.9,16.64,15.21,21.69,18.18Z"/>
            <path class="cls-2" d="M247.86,290.81c.4.17,1.06.3,1.91.64,10.13,4.06,18.98,4.69,29.98,6.38,1.77.27,3.82.07,5.74.64-1.25,6.26-16.16,3.56-21.37,2.55-8.55-1.65-10.65-4.24-17.54-8.29-1.13-1.72-.83-2.1,1.28-1.91Z"/>
            <path class="cls-33" d="M207.03,313.77c0,2.32.59,4.66.64,6.38.45,17.79-1.48,17.57,11.48,29.66.13.13-1.68.52.96,2.87,2.94,2.62,9.87,3.39,12.76,5.1,1.41.84,3.34,3.88,6.7,5.74,6.71,3.72,14.14,7.54,21.05,10.84.6.28,3.01,1.87,3.19,1.91-.99-.04-.48.91-.64,1.28l-1.28,1.28c-.32.24-1.39.25-2.55,1.28-1.51-.39-2.54.57-3.83.64-.42.02-.86,0-1.28,0-1.7-.04-7.56-1.94-7.97-1.91-.26.02-1.99,4.29-2.55,4.46-6.1,1.91-18.9-4.97-22.64-10.21,1.05.11,1.34.48,2.23.64,1.51-1.2-3.54-15.96-5.74-15.95-.79,4.4.08,8.95-.96,13.39-.58,2.46-1.43,6.83-4.78,5.74-.94-.71-3.96-6.38-4.46-6.38s-2.34,3.87-3.19,4.46c-3.75,2.64-5.07-.83-6.06,4.46-3.11.23-7.21,4.75-9.57,5.74-6.99,2.93-6.32-3.13-7.97-3.19-.6-.02-5.97,5.52-9.89,6.38-5.44,1.19-6.14.05-2.55-3.83,2.59-2.8,7.62-5.21,9.57-9.25-.74-1.45-9.91,5.52-11.8,6.06l-16.27,5.1c-2.83-1.22-4.68-.9-7.65-3.83,5.33-4.46,18.47-8.14,22.32-13.71.07-.1-2.23-.48-.96-1.59,1.69,1.41,4.28-.87,5.1-.64s1.21,2.48,1.91,2.55c1.31.14,18.02-15.26,18.18-18.5,1.21-1.72,2.08-4.83,3.19-6.7-1.03-.22-3.62,1.63-4.46,2.23,2.4-2.15,1.02-5.22,1.28-6.06.17-.56,1.26-.25,1.28-.32.27,5.01,9.76,1.95,11.48,0s.84-4.64,2.55-6.06c-.72-6.86.38-13.87.64-20.73.83.11,1.76.38,2.55.64Z"/>
            <path class="cls-34" d="M247.86,322.7c-.49,9.55-10.32-.54-16.27.64-.69,2.23,2.43,3.01,3.51,3.83,4.06,5.61,12.99,8.37,19.45,10.84,4.65,1.78,11.45,4.56,17.22,5.74,4.99,1.02,13.17-.69,16.9,3.83-2.59,2.78-6.95,4.91-8.29,6.7-2.25,2.98-2.1,8.38-6.38,12.44-4.23,4.01-1.12-1.2-1.28-1.59-1.19-3.03-6.15-.39-9.57.32-6.37,1.32-12.85,6.01-9.89-5.1-4.9,1.62-8.59,4.03-13.71,3.19-3.35-1.86-5.29-4.9-6.7-5.74-2.89-1.72-9.82-2.49-12.76-5.1-2.64-2.35-.82-2.74-.96-2.87-12.96-12.09-11.03-11.87-11.48-29.66,1.31.36,5.01,1.31,6.06,1.28.19,0,.69-1.95,1.28-1.91.19.01.61,1.11,2.23,1.28.29.03,4.14,2,5.42,1.91,5.84-.41-.19-16.03,1.91-16.58,5.57,6.02,2.41,16.13,11.8,16.9,2.04-1.53-.13-13.01,2.87-12.44.74.14,5.47,9.93,8.61,12.12Z"/>
            <path class="cls-17" d="M264.44,225.75c0,.08,1.36.58,1.28.96-.71,3.01-14.02,6.09-17.22,5.74l3.51,6.06c-3-.3-6.68.42-9.57,0-3.52-.51-8.18-4.64-9.89-2.55-1.1,1.34.63,1.66-.96,2.55-5.34,3.01-9.11-3.79-11.8-7.02-.38-.45-2.95-4.89-3.51-4.46-.44,4.67-.21,5.37-3.51,8.29-6.02.67-7.23-6.39-7.65-11.48-.13-1.62-.3-12.5,0-13.08.26-.5,5.95-1.86,7.02-2.23,1.44-.5,1.25.72,1.59.64,1.66-.37.68-3.49,3.83-1.91,1.14.57,3.61,5.16,6.38,7.02,1.82,1.22,7.04,3.99,8.93,5.1,2.39,1.41,20.32,10.61,21.69,10.84,2.2.37,9.34-1.68,9.89-4.46Z"/>
            <path class="cls-5" d="M207.03,162.6c-1.35,7.5.71,13.16,5.74,18.5.19.2,1.03,3.54,3.19,3.83.16,4.76-9.86,1.19-11.48,6.06-.13.38,1.07,7.29,1.28,7.65.82,1.47,4.9,3.45,5.1,4.46.14.7-3.04,3.77,1.28,5.42-1.07.37-6.76,1.74-7.02,2.23-.3.58-.13,11.46,0,13.08h-1.28c.02-1.27-.01-2.56,0-3.83-5.49-1.94-6.84,1.97-7.02-5.1.32-.33,4.33-7.54,4.46-7.97.11-.36-1.6-.05-1.28-1.28.53-1.97,4.6-9.77.64-9.89,1.02-3.02,2.51-5.12,3.19-8.29.27-1.27-.22-3.12,0-4.46,1.09-6.66,2.22-13.28,1.91-20.09.22-.59,1.16-.21,1.28-.32Z"/>
            <path class="cls-17" d="M207.03,162.6c-.12.11-1.06-.27-1.28.32.31,6.81-.82,13.44-1.91,20.09-1.34,7.03-4.92,1.34-5.42,1.28-.41-.05-4.51,6.01-5.42.32,5.59.97,13.26-22.62,12.12-24.24-.22-.31-5.46-1.4-5.1-4.46.24-2.08,5.78-6.63,5.74-14.35,2.98,3.06-.17,11.95,3.19,14.99,2.32,2.1,3.91-.38,4.15-.32.42.1,1.5,1.82,1.91,1.91.19.04,2.63-1.4,3.83-.64.16.1,1.61,3.32,1.59,3.51-.34,3.69-9.98-1.61-13.39,1.59Z"/>
            <path class="cls-5" d="M215.96,184.92c-2.16-.28-3-3.63-3.19-3.83,5.18-1.51,3.06-5.38,4.46-9.25,2.31,2.44,3.78,13.74-1.28,13.08Z"/>
            <path class="cls-38" d="M203.85,187.48c-.67,3.17-2.17,5.27-3.19,8.29-2.65,7.81-5.64,15.37-11.48,21.37.29.65,6.86-1.42,7.65-2.23.18,7.07,1.53,3.16,7.02,5.1-2.78,0-5.52.36-8.29,0-.11-.01.05-1.74-.96-1.91-3.98-.68-4.72,2.82-9.25-.32-1.26-.87,2.62-1.94-3.19-1.59-1.43.08-3.1,1.54-3.83.32,5.22-4.6,8.24-10.69,12.12-16.27.22-.31-.22-1.95,0-2.23.24-.3,3.49-.98,5.74-4.46,2.45-3.79.43-9.15,7.65-6.06Z"/>
            <path class="cls-39" d="M190.45,200.23c-3.88,5.58-6.9,11.66-12.12,16.27.73,1.22,2.4-.24,3.83-.32-2.24,3.85-17.76,4.7-15.95-.32.1-.27,3.88-2.66,4.46-3.51.54-.78.59-1.22.64-1.28,1.39-1.82-2.1-.94.32-3.19,3.42-3.18,13.28-5.81,16.58-10.21l2.23,2.55Z"/>
            <path class="cls-5" d="M205.12,286.34c.39,7.27-.35,19.11-.64,26.79-.26,6.86-1.35,13.87-.64,20.73-1.71,1.42-.87,4.17-2.55,6.06l-.32-2.55c-7.17,6.53-7.62.1-7.65-6.38-1.73-1.4-3.25,8.1-3.51,8.93-.02.07-1.1-.24-1.28.32-.26.84,1.12,3.91-1.28,6.06-5.63,4-4.24,8.31-9.57,10.84-3.52-.01-5.98,1.67-9.89,1.28-9.03-.91-4.99-7.42-8.93-12.76-3.64,3.13-7.31,7.01-11.8,8.93-3.67,1.57-18.85,5.92-14.67-1.28.16-.27,3.74-3.74,4.46-4.46,3.26-3.26,9.54-7.92,13.39-10.84,5.89-4.48,12.63-7.72,18.5-12.12,6.06-4.55,11.52-8.98,15.95-15.31.56-.8.52-1.09.64-1.28,1.96-3.12,2.07-2.98,3.19-6.7.33-1.09,1.89-.85,1.91-.96,13.12,2.09,9.11-19.14,12.12-27.11.62,3.83,2.35,7.94,2.55,11.8Z"/>
            <path class="cls-34" d="M177.69,357.14c-6.98,3.32-11.14.33-14.35,1.28-.7.21-1.55,2.94-2.55,3.19-1.4.35-6-1.9-7.97-1.28-2.29-2.53-1.96-5.09-5.74-5.74,4.49-1.92,8.16-5.8,11.8-8.93,3.94,5.33-.1,11.84,8.93,12.76,3.9.4,6.37-1.29,9.89-1.28Z"/>
            <path class="cls-17" d="M166.21,323.34c1.72.1,2.99.52,2.55,2.55-5.87,4.4-12.61,7.64-18.5,12.12l-19.77,1.28c-4.01-2.03-6.78-3.37-9.57-7.02v-.64c14.4,6.33,33.65-8.96,45.29-8.29Z"/>
            <path class="cls-33" d="M150.27,338.01c-3.85,2.93-10.14,7.59-13.39,10.84-2.69-3.34-6.13-14.42-6.38-3.83-2.21.27-1.59-4.74,0-5.74l19.77-1.28Z"/>
            <path class="cls-24" d="M210.22,264.66c.25,2.32,2.85,6.15,3.19,8.61.73,5.29,2.92,17.9-4.46,18.18-.07-.31-3.7-3.76-3.83-5.1-.2-3.86-1.93-7.97-2.55-11.8-3.01,7.96,1,29.2-12.12,27.11.28-1.29-1.11-10.16-.32-12.76-1.02.91-1.7.41-2.87,1.59-.48.49-5.65,11.62-5.74,12.44-2.9.53-11.62,6.87-14.35,5.1-1.52-.98,2.22-6.2,0-6.38-2.36,3.89-20.78,8.22-20.73,9.89,1.13,1.6,2.95,1.9,4.46,2.87,3.48,2.22,5.97,2.53,10.21,4.15l-3.51-.32c-1.64,3.4-5.2,2.84-7.97,3.83,5.35-1.2-3.6-6.6-6.38-9.25-.5-.48-.85-3.51-2.23-4.15-4.03-1.85-7.72,1.78-10.52-2.87-.37-5.64,4.17-8.67,7.02-12.76l-11.48-1.59c-.41-1.01-4.26-4.46-5.74-6.38,3.31-.79,5.41,1.18,9.25,1.28,2.32.06,7.32-1.03,9.89-1.28,12-1.15,21.83-3.32,32.53-8.93,8.63-4.52,9.6-7.44,15.95-15.31,2.32-2.88,7.49-6.71,8.29-7.97.56-.89,4.62-14.32,5.1-16.27,3.33,5.26-.59,24.39,2.55,28.38,1.58,2.01,4.64.46,6.38-.32Z"/>
            <path class="cls-38" d="M184.07,254.45c-3.46.23-6.47,4.23-9.89,5.1-7.8,1.99-10.33.36-6.38-7.02-4.18,1.97-10.32,3.34-14.03,0l-14.99-.64c-.14-.33-2.28-.51-1.91-1.59,1.44-2.23,3.47.77,3.19-1.59,2.3,1.64,1.26.75,2.23,1.28,2,1.07,3.69,2.7,6.38,1.28,3.09-1.64-1.12-2.9,2.23-5.74,8.59.71,10.12-.58,17.22-3.83,6.26-2.86,13.62-7.16,17.86-12.76,3.55-1.73,6.76-4.93,9.57-7.65-.61,3.04-3.78,5.7-3.83,6.06-.26,1.98,1.62,1.09,1.28,3.83-.14,1.14-4.43,4.59-5.1,5.74-1.01,1.73-7.57,13.85-7.65,14.67-.06.59.83,2,.96,2.87l3.83-3.19c1.46.52-.9,3.03-.96,3.19Z"/>
            <path class="cls-23" d="M132.41,255.73c2.88,2.32,6.49,4.38,9.89,5.74,5.34,2.14,17.99,5.55,23.6,5.74,9.1.32,11.58-1.98,16.9-8.93-2.81,7.22-6.24,11.51-10.84,17.86-10.7,5.61-20.53,7.78-32.53,8.93-2.92-2.59-18.63-.45-19.14-4.15l.96-1.59c1.96.64,7.83,1.51,10.21,1.28,9.85-.98,21.53-5.45,30.94-8.61-4.33-1.72-10.17-1.77-14.35-3.51-2.3-.96-13.15-7.74-16.27-9.57.32-.82.33-2.51,0-3.19h.64Z"/>
            <path class="cls-17" d="M205.12,223.83c.42,5.09,1.63,12.15,7.65,11.48-.78.69-2.37.54-2.55.96,3.68,3.82,6.27,3.39,8.29-1.59l13.71,14.67c1.1.89,3.27,1.39,4.15,1.91-.86,1.66-2.06,1.24-.32,3.19,2.39,2.67,25.66,14.47,29.34,15.31,2.28.52,4.54-.39,6.7-.64,1.05,1.01-4.44,5.04-4.78,5.1-2.34.4-6.14-5.33-6.06,1.91-5.4.24-8.8.82-13.71-2.55-1.06.52,3.3,7.55.64,8.93-5.42.02-10.18-2.82-15.63-1.59-1.21,1.49,14.07,9.36,15.31,9.89-2.11-.19-2.41.19-1.28,1.91-5.04-2.97-19.26-12.28-21.69-18.18-.73-1.78-.21-10.88-.64-13.39-.48-2.82-1.25-6.16-2.87-8.61-1.26,0-1.9,26.12-9.89,2.23-.25,2.21-1.46,8.14-1.28,9.89-1.74.78-4.8,2.33-6.38.32-3.14-4,.78-23.12-2.55-28.38.91-3.67,2.49-9.08,2.55-12.76h1.28Z"/>
            <path class="cls-20" d="M208.95,291.45c.78,3.4-1.92,17.24-1.91,22.32-.79-.25-1.72-.52-2.55-.64.29-7.68,1.02-19.52.64-26.79.12,1.35,3.76,4.79,3.83,5.1Z"/>
            <path class="cls-5" d="M217.24,320.79c-1.62-.16-2.04-1.27-2.23-1.28-.58-.03-1.08,1.91-1.28,1.91-1.05.03-4.75-.92-6.06-1.28-.04-1.72-.64-4.06-.64-6.38,3.51,1.12,1.84,2.38,4.15,3.83.55.34,5.27,0,6.06,3.19Z"/>
            <path class="cls-33" d="M219.79,231.49c-2.28-.17-.54,1.39-1.28,3.19-2.03,4.98-4.61,5.42-8.29,1.59.18-.42,1.77-.27,2.55-.96,3.3-2.92,3.07-3.62,3.51-8.29.56-.43,3.13,4.01,3.51,4.46Z"/>
            <path class="cls-1" d="M221.07,373.09c-.81-.08-.64-1-1.91,0-.18-.86-1.5-2.13-2.55-1.91,1.04-4.44.16-9,.96-13.39,2.2-.01,7.25,14.75,5.74,15.95-.9-.15-1.18-.53-2.23-.64Z"/>
            <g>
              <path class="cls-10" d="M216.6,387.76c0,.07,1.21-.22,1.28.32.22,1.76-.89,5.09,1.28,4.78.18,22.44-1.22,71.53,9.57,90.58-5.03,10.08-5.93,2.16-10.52,2.55-2.59.22-2.87,6.01-6.06-1.28-5.75-13.14-.5-53.93-3.19-70.48-.06-.38-.86-2.75-1.91-2.23.04-5.3-1.45-16.29-.64-20.41,1.18-6.02,5.26-3.28,10.21-3.83Z"/>
              <path class="cls-15" d="M206.4,391.59c-.81,4.12.68,15.11.64,20.41-.12,15.58,1.2,33.72,0,48.8-.84,10.63-3.35,19.45-8.93,28.38-.95.9-3.46,6.12-4.78,6.38-2.95.91-2.98-2.64-4.78-3.83,1.39-4.75,3.27-9.45,5.1-14.03,7.63-19.07,7.81-40.31,8.29-60.28.27-11.2-.69-22.34-.64-33.49.94.31,2.69-.23,3.19.96.35.84-.21,7.53,1.91,6.7Z"/>
              <path class="cls-21" d="M212.14,484.72c-4.52-.51.96,5.74-.32,6.38-7.22-5-6.52-8.7-13.71-1.91,5.58-8.93,8.09-17.75,8.93-28.38,1.2-15.08-.12-33.22,0-48.8,1.05-.52,1.85,1.85,1.91,2.23,2.69,16.55-2.56,57.34,3.19,70.48Z"/>
              <path class="cls-37" d="M216.6,371.18c1.05-.21,2.37,1.06,2.55,1.91.89,4.19-.04,14.74,0,19.77-2.16.31-1.05-3.02-1.28-4.78-.07-.53-1.27-.25-1.28-.32-.02-.47,2.92-7.47.32-8.93-3.01-1.69-7.84,2.51-8.29,2.55-1.43.12-6.81-3.41-10.52,0,.02-.61-.11-1.33,0-1.91.99-5.3,2.31-1.83,6.06-4.46.85-.6,2.69-4.47,3.19-4.46s3.53,5.67,4.46,6.38c3.36,1.09,4.21-3.28,4.78-5.74Z"/>
              <path class="cls-13" d="M201.29,383.93c-.05,11.15.91,22.29.64,33.49-.49,19.97-.66,41.21-8.29,60.28,6.89-30.43,6.21-63.28,5.1-94.4,2.21-1.58,1.48.28,2.55.64Z"/>
              <path class="cls-6" d="M216.6,387.76c-4.94.54-9.02-2.2-10.21,3.83-2.12.83-1.56-5.86-1.91-6.7-.5-1.19-2.25-.64-3.19-.96-1.07-.35-.34-2.22-2.55-.64-.02-.56-.67-.68-.64-1.91,3.71-3.41,9.1.12,10.52,0,.45-.04,5.29-4.24,8.29-2.55,2.6,1.46-.34,8.46-.32,8.93Z"/>
            </g>
            <path class="cls-34" d="M168.13,384.57c-1.94-.73-7.44,2.68-9.57,4.46-.28-.04-5.37-.05-5.74,0-.5-1.35-2.03-2.05-3.19-2.55l16.27-5.1c1.89-.54,11.06-7.51,11.8-6.06-1.95,4.04-6.97,6.45-9.57,9.25Z"/>
            <path class="cls-33" d="M201.29,339.92c-1.72,1.95-11.21,5.01-11.48,0,.26-.83,1.77-10.33,3.51-8.93.03,6.48.48,12.91,7.65,6.38l.32,2.55Z"/>
            <path class="cls-17" d="M203.85,220.01c-.01,1.27.02,2.56,0,3.83-.06,3.68-1.64,9.08-2.55,12.76-.48,1.95-4.54,15.37-5.1,16.27-.8,1.27-5.97,5.09-8.29,7.97-2.8,2.06-1.35-3.33-3.83-5.1.1-.34-.11-.97,0-1.28.06-.16,2.42-2.67.96-3.19l-3.83,3.19c-.13-.87-1.02-2.28-.96-2.87.09-.82,6.65-12.94,7.65-14.67.67-1.15,4.96-4.6,5.1-5.74.35-2.74-1.53-1.85-1.28-3.83.05-.36,3.22-3.02,3.83-6.06.08-.39-.04-.86,0-1.28,2.78.36,5.51,0,8.29,0Z"/>
            <path class="cls-17" d="M196.83,214.9c-.8.81-7.36,2.88-7.65,2.23,5.84-5.99,8.84-13.56,11.48-21.37,3.96.12-.11,7.92-.64,9.89-.33,1.23,1.39.91,1.28,1.28-.14.44-4.14,7.65-4.46,7.97Z"/>
            <path class="cls-23" d="M185.99,228.94c-4.24,5.59-11.6,9.9-17.86,12.76.19-2.15-1.47-1.11-2.55-.96-2.25.32-14.47,2.07-15.63,1.59-.27-.11-3.33-4.21-3.83-4.46-.57-.29-2.68.29-3.19,0-2.42-1.38-7.12-3.93-7.97-6.38,3.52.34,6.46-.14,9.57,0,13.89.65,28.37,3.83,41.46-2.55Z"/>
            <path class="cls-2" d="M185.35,309.31c-.12.19-.08.48-.64,1.28-1.44.81-3.91-2.59-4.15-2.55-.47.07-4.86,5.99-6.06,7.34-.23.25.23,1.67,0,1.91-2.75,2.95-5.72,3.39-8.29,6.06-11.63-.67-30.89,14.62-45.29,8.29l-.32-2.55c10.46-.65,19.34-3.57,29.02-7.02,2.78-.99,6.34-.42,7.97-3.83l3.51.32c-4.24-1.62-6.73-1.92-10.21-4.15,11.8-2.08,24.42,3.36,30.62-10.21-.05,3.27.13,6.1,3.83,5.1Z"/>
            <path class="cls-5" d="M190.45,301.65c-.02.1-1.59-.13-1.91.96-1.12,3.72-1.23,3.58-3.19,6.7-3.7,1-3.87-1.83-3.83-5.1,0-.42-.04-.86,0-1.28.09-.82,5.26-11.95,5.74-12.44,1.17-1.18,1.85-.68,2.87-1.59-.79,2.6.6,11.46.32,12.76Z"/>
            <path class="cls-17" d="M184.71,310.58c-4.43,6.33-9.88,10.76-15.95,15.31.44-2.03-.83-2.45-2.55-2.55,2.57-2.67,5.54-3.11,8.29-6.06.23-.24-.23-1.66,0-1.91,1.2-1.35,5.59-7.26,6.06-7.34.24-.04,2.71,3.36,4.15,2.55Z"/>
            <path class="cls-2" d="M187.9,260.83c-6.34,7.86-7.31,10.78-15.95,15.31,4.6-6.35,8.04-10.64,10.84-17.86.35-.91,1.23-2.42,1.28-2.55,2.48,1.77,1.03,7.16,3.83,5.1Z"/>
          </g>
        </g>
      </g>
    </g>
  </g>
</svg>